<svg xmlns="http://www.w3.org/2000/svg" width="1920" height="1080" viewBox="0 0 1920 1080">
  <defs>
    <linearGradient id="bg" x1="0" y1="0" x2="1" y2="1">
      <stop offset="0" stop-color="#07080b"/>
      <stop offset="0.55" stop-color="#0b0c10"/>
      <stop offset="1" stop-color="#07080b"/>
    </linearGradient>
    <radialGradient id="gold" cx="20%" cy="20%" r="60%">
      <stop offset="0" stop-color="#f0d28a" stop-opacity="0.25"/>
      <stop offset="1" stop-color="#f0d28a" stop-opacity="0"/>
    </radialGradient>
    <radialGradient id="gold2" cx="80%" cy="15%" r="55%">
      <stop offset="0" stop-color="#f0d28a" stop-opacity="0.16"/>
      <stop offset="1" stop-color="#f0d28a" stop-opacity="0"/>
    </radialGradient>
    <linearGradient id="line" x1="0" y1="0" x2="1" y2="0">
      <stop offset="0" stop-color="#f0d28a" stop-opacity="0"/>
      <stop offset="0.5" stop-color="#f0d28a" stop-opacity="0.7"/>
      <stop offset="1" stop-color="#f0d28a" stop-opacity="0"/>
    </linearGradient>
  </defs>

  <rect width="1920" height="1080" fill="url(#bg)"/>
  <rect width="1920" height="1080" fill="url(#gold)"/>
  <rect width="1920" height="1080" fill="url(#gold2)"/>

  <g opacity="0.65">
    <path d="M140 710 C 420 560, 680 520, 980 530 C 1280 540, 1540 610, 1780 730" fill="none" stroke="#ffffff" stroke-opacity="0.08" stroke-width="2"/>
    <path d="M120 770 C 430 610, 700 560, 1010 565 C 1320 570, 1560 635, 1800 740" fill="none" stroke="url(#line)" stroke-opacity="0.7" stroke-width="2"/>
  </g>

  <g transform="translate(210 630)">
    <rect x="0" y="0" width="1500" height="220" rx="48" fill="#0b0c10" fill-opacity="0.45" stroke="#ffffff" stroke-opacity="0.10"/>
    <rect x="70" y="90" width="1260" height="70" rx="35" fill="#ffffff" fill-opacity="0.06"/>
    <rect x="140" y="108" width="880" height="34" rx="17" fill="#f0d28a" fill-opacity="0.10"/>
    <circle cx="1340" cy="125" r="26" fill="#ffffff" fill-opacity="0.10"/>
    <circle cx="1418" cy="125" r="26" fill="#ffffff" fill-opacity="0.06"/>
  </g>

  <g transform="translate(160 140)" opacity="0.95">
    <text x="0" y="0" fill="#f0d28a" fill-opacity="0.9" font-family="ui-sans-serif, system-ui, -apple-system, Segoe UI, Roboto, Helvetica, Arial" font-size="18" letter-spacing="6">HS COACH</text>
    <text x="0" y="70" fill="#ffffff" fill-opacity="0.92" font-family="ui-sans-serif, system-ui, -apple-system, Segoe UI, Roboto, Helvetica, Arial" font-size="54" font-weight="700">Hero image placeholder</text>
    <text x="0" y="110" fill="#ffffff" fill-opacity="0.70" font-family="ui-sans-serif, system-ui, -apple-system, Segoe UI, Roboto, Helvetica, Arial" font-size="22">Replace with your real luxury coach photo in /public/images/hero</text>
  </g>
</svg>
