<svg xmlns="http://www.w3.org/2000/svg" width="1400" height="900" viewBox="0 0 1400 900">
  <defs>
    <linearGradient id="g" x1="0" y1="0" x2="1" y2="1">
      <stop offset="0" stop-color="#f0d28a" stop-opacity="0.25"/>
      <stop offset="1" stop-color="#ffffff" stop-opacity="0.06"/>
    </linearGradient>
  </defs>

  <rect width="1400" height="900" rx="44" fill="#0b0c10" fill-opacity="0.35"/>
  <rect x="80" y="110" width="1240" height="520" rx="80" fill="url(#g)" stroke="#ffffff" stroke-opacity="0.12"/>

  <g fill="#ffffff" fill-opacity="0.12">
    <rect x="170" y="200" width="170" height="170" rx="24"/>
    <rect x="360" y="200" width="170" height="170" rx="24"/>
    <rect x="550" y="200" width="170" height="170" rx="24"/>
    <rect x="740" y="200" width="170" height="170" rx="24"/>
    <rect x="930" y="200" width="170" height="170" rx="24"/>
    <rect x="1120" y="200" width="140" height="170" rx="24"/>

    <rect x="170" y="395" width="1090" height="96" rx="24"/>
  </g>

  <g>
    <circle cx="380" cy="675" r="56" fill="#ffffff" fill-opacity="0.10" stroke="#f0d28a" stroke-opacity="0.35"/>
    <circle cx="1030" cy="675" r="56" fill="#ffffff" fill-opacity="0.10" stroke="#f0d28a" stroke-opacity="0.35"/>
  </g>

  <g transform="translate(120 760)" fill="#ffffff" fill-opacity="0.65" font-family="ui-sans-serif, system-ui, -apple-system, Segoe UI, Roboto, Helvetica, Arial">
    <text x="0" y="0" font-size="20" letter-spacing="4" fill="#f0d28a" fill-opacity="0.9">VECTOR PLACEHOLDER</text>
    <text x="0" y="40" font-size="18">Replace with your own coach illustration or interior render.</text>
  </g>
</svg>
